<svg width="363" height="355" viewBox="0 0 363 355" fill="none" xmlns="http://www.w3.org/2000/svg">
<path d="M174.5 -3.95855C178.832 -6.45941 184.168 -6.45941 188.5 -3.95855L331.684 78.7085C336.015 81.2094 338.684 85.8312 338.684 90.8329V256.167C338.684 261.169 336.015 265.791 331.684 268.291L188.5 350.959C184.168 353.459 178.832 353.459 174.5 350.959L31.3164 268.291C26.9848 265.791 24.3164 261.169 24.3164 256.167V90.8329C24.3164 85.8312 26.9848 81.2094 31.3164 78.7085L174.5 -3.95855Z" fill="#575759"/>
<mask id="mask0_102_2" style="mask-type:alpha" maskUnits="userSpaceOnUse" x="24" y="-6" width="315" height="359">
<path d="M174.5 -3.95855C178.832 -6.45941 184.168 -6.45941 188.5 -3.95855L331.684 78.7085C336.015 81.2094 338.684 85.8312 338.684 90.8329V256.167C338.684 261.169 336.015 265.791 331.684 268.291L188.5 350.959C184.168 353.459 178.832 353.459 174.5 350.959L31.3164 268.291C26.9848 265.791 24.3164 261.169 24.3164 256.167V90.8329C24.3164 85.8312 26.9848 81.2094 31.3164 78.7085L174.5 -3.95855Z" fill="#C4C4C4"/>
</mask>
<g mask="url(#mask0_102_2)">
<rect x="-2.09839" y="262.598" width="391.493" height="133.006" transform="rotate(-30.5 -2.09839 262.598)" fill="white" fill-opacity="0.5"/>
<rect x="-20.9829" y="162.594" width="344.389" height="62.5123" transform="rotate(-30.5 -20.9829 162.594)" fill="white" fill-opacity="0.5"/>
<path d="M187.875 -2.87602L331.059 79.7911C335.003 82.0686 337.434 86.2778 337.434 90.8329V256.167C337.434 260.722 335.003 264.931 331.059 267.209L187.875 349.876C183.93 352.154 179.07 352.154 175.125 349.876L31.9414 267.209C27.9965 264.931 25.5664 260.722 25.5664 256.167V90.8329C25.5664 86.2778 27.9965 82.0686 31.9414 79.7911L175.125 -2.87602C179.07 -5.15358 183.93 -5.15358 187.875 -2.87602Z" stroke="#575759" stroke-width="2.5"/>
<path d="M180.549 24.6287C181.787 23.9142 183.312 23.9142 184.549 24.6287L309.567 96.8077C310.804 97.5223 311.567 98.8428 311.567 100.272V244.63C311.567 246.059 310.804 247.38 309.567 248.094L184.549 320.273C183.312 320.988 181.787 320.988 180.549 320.273L55.5314 248.094C54.2938 247.38 53.5314 246.059 53.5314 244.63V100.272C53.5314 98.8428 54.2938 97.5223 55.5314 96.8077L180.549 24.6287Z" fill="white"/>
</g>
<mask id="mask1_102_2" style="mask-type:alpha" maskUnits="userSpaceOnUse" x="53" y="24" width="259" height="297">
<path d="M180.549 24.6287C181.787 23.9142 183.312 23.9142 184.549 24.6287L309.567 96.8077C310.804 97.5223 311.567 98.8428 311.567 100.272V244.63C311.567 246.059 310.804 247.38 309.567 248.094L184.549 320.273C183.312 320.988 181.787 320.988 180.549 320.273L55.5314 248.094C54.2938 247.38 53.5314 246.059 53.5314 244.63V100.272C53.5314 98.8428 54.2938 97.5223 55.5314 96.8077L180.549 24.6287Z" fill="white"/>
</mask>
<g mask="url(#mask1_102_2)">
<rect x="10.4915" y="-8" width="337.821" height="180.451" fill="#F93D32" stroke="#575759" stroke-width="10"/>
<path d="M183.375 26.2372L308.413 98.4278C309.264 98.9191 309.788 99.8269 309.788 100.809V245.191C309.788 246.173 309.264 247.081 308.413 247.572L183.375 319.763C182.524 320.254 181.476 320.254 180.625 319.763L55.5872 247.572C54.7364 247.081 54.2122 246.173 54.2122 245.191V100.809C54.2122 99.8269 54.7364 98.9191 55.5872 98.4278L180.625 26.2372C181.476 25.746 182.524 25.746 183.375 26.2372Z" stroke="#575759" stroke-width="2.5"/>
<circle cx="182" cy="173" r="45" fill="white" stroke="#575759" stroke-width="6"/>
<circle cx="182.5" cy="172.5" r="32.5" fill="white" stroke="#575759" stroke-width="2"/>
</g>
</svg>
